<mxfile modified="2022-12-06T16:08:11.106Z" host="app.diagrams.net" agent="5.0 (Windows NT 10.0; Win64; x64) AppleWebKit/537.36 (KHTML, like Gecko) Chrome/108.0.0.0 Safari/537.36" etag="d17WKVW9HWfQ_WmzdA1U" version="20.6.0" type="github">
  <diagram id="Ht1M8jgEwFfnCIfOTk4-" name="Page-1">
    <mxGraphModel dx="1660" dy="1621" grid="1" gridSize="10" guides="1" tooltips="1" connect="1" arrows="1" fold="1" page="1" pageScale="1" pageWidth="1169" pageHeight="827" math="0" shadow="0">
      <root>
        <mxCell id="0" />
        <mxCell id="1" parent="0" />
        <mxCell id="xEK08eEitcbFVY7tsDbx-5" value="Advance tech skills&lt;br&gt;&lt;br&gt;Advance communication skills&lt;br&gt;&lt;br&gt;Advance self management and organizational skills&amp;nbsp;&lt;br&gt;&lt;br&gt;Advance team company goals and individual&lt;br&gt;with projects with clients" style="rounded=1;whiteSpace=wrap;html=1;align=left;" parent="1" vertex="1">
          <mxGeometry x="310" y="-770" width="290" height="170" as="geometry" />
        </mxCell>
        <mxCell id="xEK08eEitcbFVY7tsDbx-6" value="" style="aspect=fixed;html=1;points=[];align=center;image;fontSize=12;image=img/lib/azure2/azure_stack/Azure_Stack.svg;" parent="1" vertex="1">
          <mxGeometry x="126" y="-570" width="96.88" height="100" as="geometry" />
        </mxCell>
        <mxCell id="xEK08eEitcbFVY7tsDbx-7" value="" style="aspect=fixed;html=1;points=[];align=center;image;fontSize=12;image=img/lib/azure2/devops/Azure_DevOps.svg;" parent="1" vertex="1">
          <mxGeometry x="92" y="-320" width="64" height="64" as="geometry" />
        </mxCell>
        <mxCell id="xEK08eEitcbFVY7tsDbx-9" value="" style="aspect=fixed;html=1;points=[];align=center;image;fontSize=12;image=img/lib/azure2/general/All_Resources.svg;" parent="1" vertex="1">
          <mxGeometry x="220" y="-420" width="64" height="64" as="geometry" />
        </mxCell>
        <mxCell id="xEK08eEitcbFVY7tsDbx-10" value="" style="aspect=fixed;html=1;points=[];align=center;image;fontSize=12;image=img/lib/azure2/ai_machine_learning/Machine_Learning.svg;" parent="1" vertex="1">
          <mxGeometry x="220" y="-330" width="64" height="68" as="geometry" />
        </mxCell>
        <mxCell id="xEK08eEitcbFVY7tsDbx-11" value="" style="aspect=fixed;html=1;points=[];align=center;image;fontSize=12;image=img/lib/azure2/general/Learn.svg;" parent="1" vertex="1">
          <mxGeometry x="92" y="-413.5" width="48" height="70" as="geometry" />
        </mxCell>
      </root>
    </mxGraphModel>
  </diagram>
</mxfile>
